<svg width="218" height="24" viewBox="0 0 218 24" fill="none" xmlns="http://www.w3.org/2000/svg">
<path id="The barber shop" d="M1.152 17.388C1.704 17.28 2.076 17.124 2.268 16.92C2.46 16.704 2.556 16.344 2.556 15.84L2.574 8.28C2.574 7.896 2.526 7.638 2.43 7.506C2.346 7.374 2.172 7.308 1.908 7.308L1.296 7.344L1.26 7.272L1.386 6.48C1.542 6.48 1.662 6.486 1.746 6.498C2.466 6.522 3.012 6.534 3.384 6.534C3.888 6.534 4.53 6.48 5.31 6.372L5.238 7.182C4.878 7.242 4.62 7.314 4.464 7.398C4.32 7.482 4.218 7.626 4.158 7.83C4.11 8.022 4.074 8.346 4.05 8.802L3.942 11.718L6.966 11.736C7.722 11.736 8.61 11.676 9.63 11.556L9.648 8.28C9.648 7.896 9.6 7.638 9.504 7.506C9.42 7.374 9.246 7.308 8.982 7.308C8.814 7.308 8.61 7.32 8.37 7.344L8.334 7.272L8.46 6.48C8.592 6.492 8.832 6.504 9.18 6.516C9.528 6.528 9.876 6.534 10.224 6.534C10.8 6.534 11.52 6.48 12.384 6.372L12.312 7.182C11.868 7.242 11.568 7.344 11.412 7.488C11.256 7.62 11.172 7.86 11.16 8.208C11.088 9.564 11.028 11.022 10.98 12.582C10.932 14.13 10.908 15.3 10.908 16.092C10.908 16.536 10.962 16.836 11.07 16.992C11.178 17.136 11.388 17.208 11.7 17.208C11.844 17.208 12.114 17.19 12.51 17.154L12.546 17.226L12.384 18.054C12.216 18.054 12.084 18.048 11.988 18.036C11.196 18.012 10.59 18 10.17 18L8.1 18.036L8.262 17.226C8.658 17.214 8.946 17.16 9.126 17.064C9.318 16.968 9.45 16.788 9.522 16.524C9.594 16.26 9.63 15.852 9.63 15.3V12.582L6.894 12.564C6.594 12.576 6.174 12.6 5.634 12.636C5.094 12.66 4.518 12.702 3.906 12.762L3.834 15.984C3.834 16.476 3.888 16.806 3.996 16.974C4.104 17.13 4.314 17.208 4.626 17.208C4.77 17.208 5.04 17.19 5.436 17.154L5.472 17.226L5.31 18.054C5.202 18.042 4.998 18.03 4.698 18.018C4.398 18.006 4.092 18 3.78 18C3.228 18 2.634 18.024 1.998 18.072C1.374 18.12 1.056 18.168 1.044 18.216L1.152 17.388ZM22.1965 18.054L22.2685 17.352C22.8805 17.304 23.3005 17.232 23.5285 17.136C23.7565 17.04 23.8705 16.884 23.8705 16.668C23.8705 16.428 23.8165 16.14 23.7085 15.804L23.1145 13.842C22.8265 13.83 22.2025 13.824 21.2425 13.824C20.6665 13.824 20.0125 13.872 19.2805 13.968L18.6145 15.84C18.5065 16.164 18.4525 16.398 18.4525 16.542C18.4525 16.806 18.5365 16.998 18.7045 17.118C18.8725 17.226 19.1485 17.28 19.5325 17.28H20.5585L20.5945 17.352L20.4865 18.126C20.3425 18.114 20.0125 18.09 19.4965 18.054C18.9805 18.018 18.4765 18 17.9845 18C17.5405 18 17.1265 18.006 16.7425 18.018C16.3705 18.03 16.1245 18.042 16.0045 18.054L16.1485 17.208C16.4845 17.172 16.7545 17.058 16.9585 16.866C17.1625 16.662 17.3605 16.314 17.5525 15.822L21.0625 6.624L22.1965 6.318H22.3405C22.4125 6.606 22.5925 7.272 22.8805 8.316C23.1805 9.36 23.5405 10.596 23.9605 12.024C24.3925 13.452 24.8065 14.766 25.2025 15.966C25.3465 16.41 25.5385 16.722 25.7785 16.902C26.0185 17.082 26.4025 17.196 26.9305 17.244L26.9665 17.316L26.8405 18.054C26.6965 18.054 26.4325 18.042 26.0485 18.018C25.6765 18.006 25.3045 18 24.9325 18C24.3565 18 23.7985 18.024 23.2585 18.072C22.7305 18.12 22.3945 18.156 22.2505 18.18L22.1965 18.054ZM21.1885 13.086C21.6205 13.086 22.1785 13.056 22.8625 12.996L21.4405 8.28H21.3145L19.6045 13.086H21.1885ZM38.8823 18.288C38.5823 18.288 38.2583 18.138 37.9103 17.838C37.5743 17.526 37.2623 17.106 36.9743 16.578L35.0483 13.086H33.5543L33.5003 15.768C33.5003 16.224 33.5303 16.554 33.5903 16.758C33.6503 16.95 33.7643 17.082 33.9323 17.154C34.1003 17.214 34.3883 17.244 34.7963 17.244L34.8323 17.316L34.6703 18.072C34.5263 18.06 34.2383 18.048 33.8063 18.036C33.3743 18.024 32.9243 18.018 32.4563 18.018C32.0363 18.018 31.6643 18.024 31.3403 18.036C31.0163 18.048 30.8003 18.06 30.6923 18.072L30.8543 17.262C31.2383 17.214 31.5263 17.148 31.7183 17.064C31.9103 16.98 32.0423 16.848 32.1143 16.668C32.1863 16.476 32.2223 16.2 32.2223 15.84L32.2403 8.28C32.2403 7.896 32.1923 7.638 32.0963 7.506C32.0123 7.374 31.8383 7.308 31.5743 7.308C31.4543 7.308 31.3343 7.314 31.2143 7.326C31.0943 7.338 31.0103 7.344 30.9623 7.344L30.9263 7.272L31.0523 6.48C31.1963 6.492 31.4663 6.504 31.8623 6.516C32.2583 6.528 32.6543 6.534 33.0503 6.534C33.4583 6.534 33.8843 6.528 34.3283 6.516C34.7843 6.492 35.0963 6.474 35.2643 6.462C36.3803 6.462 37.2623 6.714 37.9103 7.218C38.5583 7.722 38.8823 8.412 38.8823 9.288C38.8823 10.008 38.6483 10.668 38.1803 11.268C37.7243 11.868 37.0763 12.36 36.2363 12.744L38.2163 15.876C38.5643 16.452 38.9003 16.854 39.2243 17.082C39.5603 17.298 39.9683 17.406 40.4483 17.406L40.5203 17.478L40.4123 18.09L38.8823 18.288ZM35.4443 12.258C35.4443 12.294 35.6243 12.216 35.9843 12.024C36.3443 11.832 36.6683 11.538 36.9563 11.142C37.2443 10.746 37.3883 10.236 37.3883 9.612C37.3883 8.028 36.2903 7.236 34.0943 7.236C33.9743 7.236 33.8903 7.266 33.8423 7.326C33.8063 7.374 33.7823 7.482 33.7703 7.65C33.6623 9.486 33.6023 10.962 33.5903 12.078L35.4443 12.258ZM49.0804 18.216C48.1084 18.216 47.2444 17.982 46.4884 17.514C45.7324 17.046 45.1444 16.392 44.7244 15.552C44.3044 14.7 44.0944 13.734 44.0944 12.654C44.0944 11.478 44.3524 10.41 44.8684 9.45C45.3964 8.478 46.1104 7.716 47.0104 7.164C47.9224 6.6 48.9244 6.318 50.0164 6.318C51.0124 6.318 51.8944 6.552 52.6624 7.02C53.4304 7.488 54.0304 8.142 54.4624 8.982C54.8944 9.822 55.1104 10.782 55.1104 11.862C55.1104 13.038 54.8404 14.112 54.3004 15.084C53.7724 16.056 53.0464 16.824 52.1224 17.388C51.2104 17.94 50.1964 18.216 49.0804 18.216ZM49.6384 17.298C50.3944 17.298 51.0664 17.1 51.6544 16.704C52.2424 16.308 52.6984 15.756 53.0224 15.048C53.3464 14.34 53.5084 13.53 53.5084 12.618C53.5084 11.598 53.3344 10.698 52.9864 9.918C52.6384 9.126 52.1524 8.508 51.5284 8.064C50.9164 7.62 50.2084 7.398 49.4044 7.398C48.6724 7.398 48.0184 7.596 47.4424 7.992C46.8784 8.388 46.4344 8.94 46.1104 9.648C45.7984 10.356 45.6424 11.166 45.6424 12.078C45.6424 13.098 45.8104 14.004 46.1464 14.796C46.4824 15.576 46.9504 16.188 47.5504 16.632C48.1624 17.076 48.8584 17.298 49.6384 17.298ZM66.3176 17.388C66.8696 17.28 67.2416 17.124 67.4336 16.92C67.6256 16.704 67.7216 16.344 67.7216 15.84L67.7396 8.28C67.7396 7.896 67.6916 7.638 67.5956 7.506C67.5116 7.374 67.3376 7.308 67.0736 7.308C66.9536 7.308 66.8336 7.314 66.7136 7.326C66.5936 7.338 66.5096 7.344 66.4616 7.344L66.4256 7.272L66.5516 6.48C66.7076 6.492 67.0196 6.504 67.4876 6.516C67.9676 6.528 68.4896 6.534 69.0536 6.534C71.4176 6.534 73.1036 6.462 74.1116 6.318L74.1656 6.426C74.1536 6.498 74.1176 6.666 74.0576 6.93C74.0096 7.194 73.9556 7.56 73.8956 8.028C73.8356 8.496 73.7876 8.976 73.7516 9.468L72.8876 9.54C72.8876 9.48 72.8936 9.366 72.9056 9.198C72.9176 9.03 72.9236 8.868 72.9236 8.712C72.9236 8.292 72.8696 8.004 72.7616 7.848C72.6656 7.68 72.4616 7.572 72.1496 7.524C71.8376 7.464 71.2916 7.434 70.5116 7.434C70.0916 7.434 69.8036 7.446 69.6476 7.47C69.4916 7.494 69.3896 7.554 69.3416 7.65C69.2936 7.734 69.2636 7.896 69.2516 8.136L69.1076 11.934L70.9616 11.952C71.1896 11.952 71.5256 11.928 71.9696 11.88C72.4136 11.82 72.7076 11.778 72.8516 11.754L72.9236 11.844L72.6716 12.924C72.5156 12.912 72.2216 12.9 71.7896 12.888C71.3696 12.876 70.9256 12.87 70.4576 12.87C70.0136 12.87 69.5516 12.912 69.0716 12.996L68.9996 15.984C68.9996 16.476 69.0536 16.806 69.1616 16.974C69.2696 17.13 69.4796 17.208 69.7916 17.208C70.0316 17.208 70.2776 17.202 70.5296 17.19C70.7936 17.166 70.9736 17.154 71.0696 17.154L71.1056 17.226L70.9436 18.072C70.7516 18.06 70.3916 18.042 69.8636 18.018C69.3476 18.006 68.8136 18 68.2616 18C67.8896 18 67.4876 18.03 67.0556 18.09C66.6236 18.15 66.3416 18.192 66.2096 18.216L66.3176 17.388ZM82.8797 18.054L82.9517 17.352C83.5637 17.304 83.9837 17.232 84.2117 17.136C84.4397 17.04 84.5537 16.884 84.5537 16.668C84.5537 16.428 84.4997 16.14 84.3917 15.804L83.7977 13.842C83.5097 13.83 82.8857 13.824 81.9257 13.824C81.3497 13.824 80.6957 13.872 79.9637 13.968L79.2977 15.84C79.1897 16.164 79.1357 16.398 79.1357 16.542C79.1357 16.806 79.2197 16.998 79.3877 17.118C79.5557 17.226 79.8317 17.28 80.2157 17.28H81.2417L81.2777 17.352L81.1697 18.126C81.0257 18.114 80.6957 18.09 80.1797 18.054C79.6637 18.018 79.1597 18 78.6677 18C78.2237 18 77.8097 18.006 77.4257 18.018C77.0537 18.03 76.8077 18.042 76.6877 18.054L76.8317 17.208C77.1677 17.172 77.4377 17.058 77.6417 16.866C77.8457 16.662 78.0437 16.314 78.2357 15.822L81.7457 6.624L82.8797 6.318H83.0237C83.0957 6.606 83.2757 7.272 83.5637 8.316C83.8637 9.36 84.2237 10.596 84.6437 12.024C85.0757 13.452 85.4897 14.766 85.8857 15.966C86.0297 16.41 86.2217 16.722 86.4617 16.902C86.7017 17.082 87.0857 17.196 87.6137 17.244L87.6497 17.316L87.5237 18.054C87.3797 18.054 87.1157 18.042 86.7317 18.018C86.3597 18.006 85.9877 18 85.6157 18C85.0397 18 84.4817 18.024 83.9417 18.072C83.4137 18.12 83.0777 18.156 82.9337 18.18L82.8797 18.054ZM81.8717 13.086C82.3037 13.086 82.8617 13.056 83.5457 12.996L82.1237 8.28H81.9977L80.2877 13.086H81.8717ZM94.0395 8.64H93.9495C93.8775 9.432 93.7515 10.92 93.5715 13.104C93.3915 15.276 93.3015 16.458 93.3015 16.65C93.3015 17.022 93.4875 17.208 93.8595 17.208L94.5975 17.19L94.6335 17.262L94.4715 18.072C94.3395 18.06 94.0995 18.042 93.7515 18.018C93.4155 18.006 93.0735 18 92.7255 18C92.4255 18 92.1135 18.018 91.7895 18.054C91.4775 18.102 91.2735 18.132 91.1775 18.144L91.2675 17.316C91.6515 17.268 91.9275 17.148 92.0955 16.956C92.2635 16.752 92.3715 16.41 92.4195 15.93C92.5395 14.802 92.6955 13.284 92.8875 11.376C93.0915 9.456 93.1935 8.382 93.1935 8.154C93.1935 7.842 93.0675 7.608 92.8155 7.452C92.5755 7.296 92.1855 7.2 91.6455 7.164L91.5915 7.074L91.7355 6.444C91.8915 6.456 92.1975 6.474 92.6535 6.498C93.1095 6.522 93.4575 6.534 93.6975 6.534C93.9135 6.534 94.1475 6.528 94.3995 6.516C94.6635 6.492 94.8375 6.474 94.9215 6.462C95.4015 8.01 95.8635 9.45 96.3075 10.782C96.7635 12.102 97.1355 13.152 97.4235 13.932C97.7115 14.712 97.8915 15.198 97.9635 15.39H98.0535C98.2215 14.946 98.6055 13.89 99.2055 12.222C99.8055 10.554 100.459 8.646 101.167 6.498C101.167 6.486 101.329 6.492 101.653 6.516L102.355 6.534C102.583 6.534 102.925 6.522 103.381 6.498C103.837 6.462 104.143 6.438 104.299 6.426L104.335 6.498L104.245 7.164C103.729 7.224 103.363 7.332 103.147 7.488C102.931 7.632 102.823 7.854 102.823 8.154C102.823 8.418 102.877 9.402 102.985 11.106C103.093 12.798 103.195 14.262 103.291 15.498C103.351 15.99 103.411 16.356 103.471 16.596C103.531 16.824 103.615 16.986 103.723 17.082C103.831 17.166 103.981 17.208 104.173 17.208C104.281 17.208 104.383 17.202 104.479 17.19C104.575 17.178 104.641 17.172 104.677 17.172L104.713 17.244L104.551 18.054C104.431 18.042 104.203 18.03 103.867 18.018C103.543 18.006 103.201 18 102.841 18C102.517 18 102.151 18.018 101.743 18.054C101.347 18.102 101.089 18.132 100.969 18.144L101.041 17.316C101.413 17.268 101.683 17.172 101.851 17.028C102.019 16.884 102.103 16.68 102.103 16.416C102.103 16.164 102.013 14.994 101.833 12.906C101.665 10.818 101.551 9.396 101.491 8.64H101.401L97.9275 18.216L97.4955 18.342L94.0395 8.64ZM109.586 17.388C110.15 17.28 110.528 17.124 110.72 16.92C110.924 16.704 111.026 16.344 111.026 15.84L111.044 8.28C111.044 7.896 110.996 7.638 110.9 7.506C110.816 7.374 110.642 7.308 110.378 7.308L109.622 7.344L109.586 7.272L109.712 6.48C109.904 6.48 110.054 6.486 110.162 6.498L111.854 6.534C112.394 6.534 113.084 6.48 113.924 6.372L113.852 7.182C113.36 7.242 113.024 7.344 112.844 7.488C112.676 7.62 112.58 7.86 112.556 8.208C112.484 9.612 112.424 11.082 112.376 12.618C112.328 14.142 112.304 15.264 112.304 15.984C112.304 16.476 112.358 16.806 112.466 16.974C112.574 17.13 112.784 17.208 113.096 17.208C113.3 17.208 113.618 17.19 114.05 17.154L114.086 17.226L113.924 18.054C113.756 18.054 113.624 18.048 113.528 18.036C112.688 18.012 112.034 18 111.566 18C110.978 18 110.282 18.072 109.478 18.216L109.586 17.388ZM119.186 17.352C119.654 17.28 119.972 17.142 120.14 16.938C120.32 16.722 120.41 16.356 120.41 15.84L120.428 8.28C120.428 7.896 120.38 7.638 120.284 7.506C120.2 7.374 120.026 7.308 119.762 7.308C119.642 7.308 119.522 7.314 119.402 7.326C119.282 7.338 119.198 7.344 119.15 7.344L119.114 7.272L119.24 6.48C119.384 6.492 119.654 6.504 120.05 6.516C120.446 6.528 120.848 6.534 121.256 6.534C121.58 6.534 121.946 6.516 122.354 6.48C122.774 6.432 123.05 6.396 123.182 6.372L123.11 7.182C122.714 7.23 122.438 7.308 122.282 7.416C122.138 7.524 122.048 7.65 122.012 7.794C121.988 7.938 121.958 8.292 121.922 8.856C121.85 9.876 121.796 11.04 121.76 12.348C121.724 13.656 121.706 14.808 121.706 15.804C121.706 16.236 121.742 16.548 121.814 16.74C121.886 16.92 122.018 17.04 122.21 17.1C122.414 17.16 122.756 17.19 123.236 17.19C123.968 17.19 124.502 17.13 124.838 17.01C125.186 16.89 125.444 16.656 125.612 16.308C125.792 15.96 125.954 15.402 126.098 14.634L126.89 14.544L126.944 14.634C126.908 14.826 126.83 15.258 126.71 15.93C126.602 16.602 126.506 17.31 126.422 18.054L126.332 18.162C125.984 18.138 125.264 18.102 124.172 18.054C123.092 18.018 122.198 18 121.49 18C120.926 18 120.41 18.024 119.942 18.072C119.486 18.12 119.198 18.156 119.078 18.18L119.186 17.352ZM131.836 17.388C132.268 17.304 132.58 17.196 132.772 17.064C132.964 16.932 133.09 16.752 133.15 16.524C133.21 16.296 133.24 15.936 133.24 15.444V14.652C133.24 14.28 133.204 13.956 133.132 13.68C133.06 13.392 132.922 13.038 132.718 12.618L131.098 9.324C130.786 8.688 130.564 8.262 130.432 8.046C130.3 7.818 130.114 7.638 129.874 7.506C129.634 7.374 129.286 7.29 128.83 7.254L128.794 7.182L128.902 6.48C129.034 6.492 129.286 6.504 129.658 6.516C130.03 6.528 130.438 6.534 130.882 6.534C131.302 6.534 131.788 6.516 132.34 6.48C132.904 6.432 133.27 6.402 133.438 6.39L133.492 6.516L133.438 7.146C132.898 7.194 132.532 7.266 132.34 7.362C132.16 7.446 132.07 7.59 132.07 7.794C132.07 7.95 132.22 8.376 132.52 9.072C132.82 9.768 133.126 10.452 133.438 11.124C133.762 11.796 133.978 12.234 134.086 12.438H134.176L136.228 8.622C136.42 8.274 136.516 7.974 136.516 7.722C136.516 7.41 136.138 7.23 135.382 7.182L135.346 7.11L135.454 6.408C135.598 6.42 135.898 6.444 136.354 6.48C136.81 6.516 137.176 6.534 137.452 6.534C137.74 6.534 138.058 6.528 138.406 6.516C138.766 6.492 139 6.474 139.108 6.462L139.18 6.588L139.072 7.254C138.688 7.326 138.388 7.428 138.172 7.56C137.956 7.68 137.764 7.86 137.596 8.1C137.44 8.328 137.206 8.718 136.894 9.27C136.822 9.414 136.762 9.522 136.714 9.594L134.914 12.762C134.758 13.038 134.656 13.35 134.608 13.698C134.572 14.046 134.542 14.676 134.518 15.588V15.984C134.506 16.452 134.554 16.776 134.662 16.956C134.782 17.124 134.998 17.208 135.31 17.208C135.502 17.208 135.682 17.202 135.85 17.19C136.018 17.178 136.132 17.166 136.192 17.154L136.228 17.226L136.066 18.054C135.898 18.042 135.586 18.03 135.13 18.018C134.686 18.006 134.236 18 133.78 18C133.408 18 133.006 18.03 132.574 18.09C132.142 18.15 131.86 18.192 131.728 18.216L131.836 17.388ZM149.41 17.316C149.938 17.22 150.286 17.082 150.454 16.902C150.622 16.71 150.706 16.356 150.706 15.84L150.724 8.28C150.724 7.896 150.676 7.638 150.58 7.506C150.496 7.374 150.322 7.308 150.058 7.308C149.938 7.308 149.818 7.314 149.698 7.326C149.578 7.338 149.494 7.344 149.446 7.344L149.41 7.272L149.536 6.48C149.68 6.492 149.95 6.504 150.346 6.516C150.742 6.528 151.138 6.534 151.534 6.534C151.906 6.534 152.326 6.528 152.794 6.516C153.274 6.492 153.61 6.474 153.802 6.462C155.05 6.462 156.004 6.738 156.664 7.29C157.324 7.842 157.654 8.634 157.654 9.666C157.654 10.338 157.456 10.98 157.06 11.592C156.676 12.192 156.166 12.678 155.53 13.05C154.894 13.422 154.228 13.608 153.532 13.608H152.02L151.984 15.372C151.984 15.948 152.002 16.362 152.038 16.614C152.074 16.854 152.14 17.016 152.236 17.1C152.344 17.172 152.524 17.208 152.776 17.208C152.98 17.208 153.172 17.202 153.352 17.19C153.544 17.178 153.676 17.166 153.748 17.154L153.784 17.226L153.622 18.054C153.502 18.042 153.28 18.03 152.956 18.018C152.644 18.006 152.314 18 151.966 18C151.486 18 150.922 18.018 150.274 18.054C149.638 18.09 149.308 18.12 149.284 18.144L149.41 17.316ZM153.964 12.816C154.684 12.696 155.224 12.402 155.584 11.934C155.956 11.466 156.142 10.824 156.142 10.008C156.142 9.084 155.866 8.412 155.314 7.992C154.774 7.56 153.922 7.344 152.758 7.344C152.542 7.344 152.41 7.356 152.362 7.38C152.314 7.404 152.284 7.476 152.272 7.596C152.164 9.12 152.092 10.77 152.056 12.546L153.964 12.816ZM162.096 17.388C162.648 17.28 163.02 17.124 163.212 16.92C163.404 16.704 163.5 16.344 163.5 15.84L163.518 8.28C163.518 7.896 163.47 7.638 163.374 7.506C163.29 7.374 163.116 7.308 162.852 7.308L162.24 7.344L162.204 7.272L162.33 6.48C162.486 6.48 162.606 6.486 162.69 6.498C163.41 6.522 163.956 6.534 164.328 6.534C164.832 6.534 165.474 6.48 166.254 6.372L166.182 7.182C165.822 7.242 165.564 7.314 165.408 7.398C165.264 7.482 165.162 7.626 165.102 7.83C165.054 8.022 165.018 8.346 164.994 8.802L164.886 11.718L167.91 11.736C168.666 11.736 169.554 11.676 170.574 11.556L170.592 8.28C170.592 7.896 170.544 7.638 170.448 7.506C170.364 7.374 170.19 7.308 169.926 7.308C169.758 7.308 169.554 7.32 169.314 7.344L169.278 7.272L169.404 6.48C169.536 6.492 169.776 6.504 170.124 6.516C170.472 6.528 170.82 6.534 171.168 6.534C171.744 6.534 172.464 6.48 173.328 6.372L173.256 7.182C172.812 7.242 172.512 7.344 172.356 7.488C172.2 7.62 172.116 7.86 172.104 8.208C172.032 9.564 171.972 11.022 171.924 12.582C171.876 14.13 171.852 15.3 171.852 16.092C171.852 16.536 171.906 16.836 172.014 16.992C172.122 17.136 172.332 17.208 172.644 17.208C172.788 17.208 173.058 17.19 173.454 17.154L173.49 17.226L173.328 18.054C173.16 18.054 173.028 18.048 172.932 18.036C172.14 18.012 171.534 18 171.114 18L169.044 18.036L169.206 17.226C169.602 17.214 169.89 17.16 170.07 17.064C170.262 16.968 170.394 16.788 170.466 16.524C170.538 16.26 170.574 15.852 170.574 15.3V12.582L167.838 12.564C167.538 12.576 167.118 12.6 166.578 12.636C166.038 12.66 165.462 12.702 164.85 12.762L164.778 15.984C164.778 16.476 164.832 16.806 164.94 16.974C165.048 17.13 165.258 17.208 165.57 17.208C165.714 17.208 165.984 17.19 166.38 17.154L166.416 17.226L166.254 18.054C166.146 18.042 165.942 18.03 165.642 18.018C165.342 18.006 165.036 18 164.724 18C164.172 18 163.578 18.024 162.942 18.072C162.318 18.12 162 18.168 161.988 18.216L162.096 17.388ZM183.1 18.216C182.128 18.216 181.264 17.982 180.508 17.514C179.752 17.046 179.164 16.392 178.744 15.552C178.324 14.7 178.114 13.734 178.114 12.654C178.114 11.478 178.372 10.41 178.888 9.45C179.416 8.478 180.13 7.716 181.03 7.164C181.942 6.6 182.944 6.318 184.036 6.318C185.032 6.318 185.914 6.552 186.682 7.02C187.45 7.488 188.05 8.142 188.482 8.982C188.914 9.822 189.13 10.782 189.13 11.862C189.13 13.038 188.86 14.112 188.32 15.084C187.792 16.056 187.066 16.824 186.142 17.388C185.23 17.94 184.216 18.216 183.1 18.216ZM183.658 17.298C184.414 17.298 185.086 17.1 185.674 16.704C186.262 16.308 186.718 15.756 187.042 15.048C187.366 14.34 187.528 13.53 187.528 12.618C187.528 11.598 187.354 10.698 187.006 9.918C186.658 9.126 186.172 8.508 185.548 8.064C184.936 7.62 184.228 7.398 183.424 7.398C182.692 7.398 182.038 7.596 181.462 7.992C180.898 8.388 180.454 8.94 180.13 9.648C179.818 10.356 179.662 11.166 179.662 12.078C179.662 13.098 179.83 14.004 180.166 14.796C180.502 15.576 180.97 16.188 181.57 16.632C182.182 17.076 182.878 17.298 183.658 17.298ZM194.92 17.298C195.52 17.25 195.934 17.178 196.162 17.082C196.39 16.974 196.54 16.788 196.612 16.524C196.684 16.248 196.72 15.768 196.72 15.084V7.236C195.7 7.272 195.004 7.332 194.632 7.416C194.272 7.488 194.026 7.662 193.894 7.938C193.762 8.202 193.642 8.724 193.534 9.504L192.688 9.576C192.832 8.436 192.922 7.398 192.958 6.462L193.12 6.318L194.614 6.516H200.194L201.724 6.318L201.886 6.462C201.922 7.446 202.012 8.46 202.156 9.504L201.31 9.576C201.178 8.784 201.046 8.25 200.914 7.974C200.782 7.698 200.548 7.518 200.212 7.434C199.876 7.35 199.228 7.284 198.268 7.236C198.196 7.956 198.13 9.228 198.07 11.052C198.01 12.876 197.98 14.52 197.98 15.984C197.98 16.428 198.058 16.746 198.214 16.938C198.37 17.118 198.634 17.208 199.006 17.208C199.366 17.208 199.696 17.19 199.996 17.154L200.05 17.226L199.888 18.054L199.294 18.036L197.242 18C196.582 18 195.76 18.024 194.776 18.072L194.92 17.298ZM210.727 18.216C209.755 18.216 208.891 17.982 208.135 17.514C207.379 17.046 206.791 16.392 206.371 15.552C205.951 14.7 205.741 13.734 205.741 12.654C205.741 11.478 205.999 10.41 206.515 9.45C207.043 8.478 207.757 7.716 208.657 7.164C209.569 6.6 210.571 6.318 211.663 6.318C212.659 6.318 213.541 6.552 214.309 7.02C215.077 7.488 215.677 8.142 216.109 8.982C216.541 9.822 216.757 10.782 216.757 11.862C216.757 13.038 216.487 14.112 215.947 15.084C215.419 16.056 214.693 16.824 213.769 17.388C212.857 17.94 211.843 18.216 210.727 18.216ZM211.285 17.298C212.041 17.298 212.713 17.1 213.301 16.704C213.889 16.308 214.345 15.756 214.669 15.048C214.993 14.34 215.155 13.53 215.155 12.618C215.155 11.598 214.981 10.698 214.633 9.918C214.285 9.126 213.799 8.508 213.175 8.064C212.563 7.62 211.855 7.398 211.051 7.398C210.319 7.398 209.665 7.596 209.089 7.992C208.525 8.388 208.081 8.94 207.757 9.648C207.445 10.356 207.289 11.166 207.289 12.078C207.289 13.098 207.457 14.004 207.793 14.796C208.129 15.576 208.597 16.188 209.197 16.632C209.809 17.076 210.505 17.298 211.285 17.298Z" fill="#C2B29E"/>
</svg>
